<svg xmlns="http://www.w3.org/2000/svg" width="1600" height="900" viewBox="0 0 1600 900" role="img" aria-label="Project hero placeholder">
  <defs>
    <linearGradient id="g" x1="0" y1="0" x2="1" y2="1">
      <stop offset="0" stop-color="#edf3ff"/>
      <stop offset="0.45" stop-color="#fdeef1"/>
      <stop offset="1" stop-color="#eef7e9"/>
    </linearGradient>
    <radialGradient id="r" cx="35%" cy="40%" r="70%">
      <stop offset="0" stop-color="#ffffff" stop-opacity="0.9"/>
      <stop offset="1" stop-color="#ffffff" stop-opacity="0"/>
    </radialGradient>
  </defs>
  <rect width="1600" height="900" rx="40" fill="url(#g)"/>
  <circle cx="520" cy="420" r="360" fill="url(#r)"/>
  <circle cx="1160" cy="520" r="320" fill="url(#r)" opacity="0.7"/>
  <path d="M240 650c120-180 290-270 510-260 220 10 390 120 520 330-170 120-360 175-570 165-210-10-370-80-460-235z" fill="#0b0d12" opacity="0.08"/>
  <path d="M980 260c100 10 190 55 260 130 40 44 68 98 80 160-70 40-150 66-240 78-90 12-170 6-250-18-10-70 5-136 46-200 34-52 82-98 104-150z" fill="#f04a76" opacity="0.14"/>
</svg>
