<svg xmlns="http://www.w3.org/2000/svg" viewBox="0 0 64 64">
	<rect width="64" height="64" rx="12" fill="#121316" />

	<!-- Sword -->
	<path
		d="M10 17 25 8l2 3-14 9 6 6-3 2-6-6-2-3Z"
		fill="#ffffff"
		opacity="0.98"
	/>
	<path
		d="M24 10 28 7l5 8-3 2-6-7Z"
		fill="#ffffff"
		opacity="0.92"
	/>

	<!-- Knight head/helmet -->
	<path
		d="M35 13 44 18 37 26 29 22 35 13Z"
		fill="#ffffff"
	/>
	<path
		d="M37 18 41 20 38 23 34 21 37 18Z"
		fill="#d7d9de"
	/>

	<!-- Knight body -->
	<path
		d="M26 24 41 31 50 50H23l3-16Z"
		fill="#ffffff"
	/>
	<path
		d="M33 28 39 31 35 43 29 39l4-11Z"
		fill="#d7d9de"
	/>

	<!-- Arm + shoulder -->
	<path
		d="M22 29 29 26 31 34 25 37 22 29Z"
		fill="#ffffff"
		opacity="0.96"
	/>

	<!-- Base cut -->
	<path
		d="M20 50h34v4H20z"
		fill="#121316"
	/>
</svg>