<svg xmlns="http://www.w3.org/2000/svg" width="900" height="900" viewBox="0 0 900 900" role="img" aria-label="Portrait placeholder">
  <defs>
    <linearGradient id="bg" x1="0" y1="0" x2="1" y2="1">
      <stop offset="0" stop-color="#f2f5ff"/>
      <stop offset="0.5" stop-color="#fef0f4"/>
      <stop offset="1" stop-color="#eef7e9"/>
    </linearGradient>
    <linearGradient id="shape" x1="0" y1="1" x2="1" y2="0">
      <stop offset="0" stop-color="#f04a76" stop-opacity="0.85"/>
      <stop offset="1" stop-color="#5b7cfa" stop-opacity="0.75"/>
    </linearGradient>
    <filter id="soft" x="-20%" y="-20%" width="140%" height="140%">
      <feGaussianBlur stdDeviation="16"/>
    </filter>
  </defs>

  <rect width="900" height="900" fill="url(#bg)"/>

  <circle cx="300" cy="330" r="220" fill="#ffffff" opacity="0.55"/>
  <circle cx="610" cy="520" r="260" fill="#ffffff" opacity="0.45"/>

  <g filter="url(#soft)" opacity="0.9">
    <path d="M170 610c80-170 185-250 320-240 120 10 200 95 250 255-90 120-220 185-390 195-95 5-155-55-180-210z" fill="url(#shape)"/>
    <path d="M280 265c35-50 85-80 150-80 95 0 175 65 195 155 10 45-5 85-35 120-30 35-75 60-130 65-75 7-145-30-185-95-30-50-25-110 5-165z" fill="#0b0d12" opacity="0.12"/>
  </g>

  <circle cx="450" cy="420" r="170" fill="#ffffff" opacity="0.55"/>
  <path d="M330 520c20-55 60-85 120-90 70-6 120 22 150 84 12 25 15 55 10 90-48 20-102 34-160 38-58 4-110-5-160-30 5-35 18-65 40-92z" fill="#0b0d12" opacity="0.12"/>

  <circle cx="450" cy="420" r="330" fill="none" stroke="#0b0d12" stroke-opacity="0.06" stroke-width="2"/>
</svg>
